<svg width="35" height="35" viewBox="0 0 35 35" fill="none" xmlns="http://www.w3.org/2000/svg">
<path d="M32.4581 14.6836H31.3004C31.3002 14.6251 31.2878 14.5673 31.264 14.5139C31.2402 14.4605 31.2054 14.4127 31.162 14.3735C31.114 12.5906 30.7156 10.8346 29.9895 9.20555V6.68062C29.9888 6.29693 29.836 5.92918 29.5645 5.65803C29.293 5.38687 28.9251 5.23443 28.5414 5.23414H27.382C27.3822 5.1783 27.3713 5.12298 27.35 5.07136C27.3287 5.01974 27.2974 4.97284 27.2579 4.93335C27.2184 4.89387 27.1715 4.86257 27.1199 4.84127C27.0683 4.81997 27.013 4.80907 26.9571 4.80922C26.9298 4.80922 26.9057 4.82016 26.8795 4.82453C24.4316 2.51344 21.1323 1.09375 17.5 1.09375C13.5871 1.09375 10.0603 2.74094 7.5682 5.37578H6.60078C6.21704 5.37593 5.84904 5.52832 5.57754 5.79951C5.30604 6.0707 5.15324 6.43853 5.15266 6.82227V8.89109C4.33625 10.6067 3.8884 12.4743 3.83797 14.3735C3.79514 14.413 3.7609 14.4608 3.73738 14.514C3.71386 14.5673 3.70156 14.6248 3.70125 14.683H2.54187C2.15808 14.6836 1.79016 14.8363 1.51873 15.1076C1.24729 15.379 1.09447 15.7468 1.09375 16.1306V19.2976C1.09462 19.6811 1.24755 20.0487 1.51902 20.3196C1.79049 20.5906 2.15833 20.7428 2.54187 20.743H5.20133C5.8078 21.9852 6.59879 23.1286 7.54742 24.1341H6.45969C6.07576 24.134 5.70748 24.2863 5.43574 24.5575C5.16401 24.8287 5.01105 25.1967 5.01047 25.5806V28.7476C5.01134 29.1313 5.16442 29.499 5.43613 29.77C5.70783 30.041 6.07595 30.1931 6.45969 30.193H8.43008L6.5625 33.9062H7.98109L9.85086 30.17C10.1911 30.1177 10.5014 29.9456 10.7259 29.6847C10.9504 29.4238 11.0744 29.0912 11.0753 28.747V27.9016L11.532 27.0566C12.6237 27.5908 13.7824 27.9758 14.9767 28.2013C14.8179 28.3356 14.6901 28.5028 14.6022 28.6914C14.5143 28.8799 14.4684 29.0853 14.4676 29.2934V32.4592C14.4682 32.843 14.6209 33.2109 14.8924 33.4822C15.1639 33.7534 15.5319 33.906 15.9157 33.9062H19.0837C19.4675 33.9058 19.8354 33.7533 20.1069 33.482C20.3783 33.2108 20.5312 32.843 20.5319 32.4592V29.2934C20.5319 28.8548 20.3317 28.467 20.0222 28.2013C21.2231 27.9747 22.3879 27.5869 23.485 27.0484L23.782 27.598V28.6048C23.782 29.3568 24.3627 29.9704 25.0994 30.0377L27.0189 33.9062H28.4375L26.5147 30.0502H28.3987C28.7824 30.0499 29.1503 29.8975 29.4218 29.6264C29.6932 29.3552 29.8461 28.9874 29.8468 28.6038V25.4379C29.8465 25.054 29.6938 24.686 29.4223 24.4146C29.1507 24.1433 28.7825 23.9909 28.3987 23.9909L27.5877 23.9914C28.4768 23.0206 29.2211 21.9265 29.7976 20.743H32.4576C32.8412 20.7431 33.2092 20.591 33.4808 20.32C33.7523 20.0489 33.9051 19.6812 33.9057 19.2976V16.1306C33.9056 15.7468 33.753 15.3787 33.4815 15.1074C33.2101 14.836 32.842 14.6836 32.4581 14.6836ZM1.94633 17.7138V16.1306C1.94633 15.8014 2.2132 15.5356 2.54242 15.5356H3.85164C3.89263 16.2684 3.99267 16.9966 4.15078 17.7133H1.94633V17.7138ZM28.5409 6.08508C28.8701 6.08508 29.138 6.35195 29.138 6.68117V7.59172C28.8138 7.06571 28.4542 6.56234 28.0618 6.08508H28.5409ZM27.6232 8.26328L24.7762 8.26383V8.26273L26.3851 6.65383C26.8422 7.15464 27.2564 7.69302 27.6232 8.26328ZM25.3728 6.08508H25.4067L24.7762 6.71562V6.68117C24.7762 6.35195 25.0441 6.08508 25.3728 6.08508ZM18.0469 2.74805C18.5937 2.77659 19.138 2.842 19.676 2.94383C19.6766 2.95148 19.6809 2.9575 19.6809 2.9657V4.54891H18.0469V2.74805ZM18.0469 7.57805H19.0837C19.4673 7.57805 19.8353 7.42585 20.1068 7.15487C20.3783 6.88388 20.5312 6.51625 20.5319 6.13266V3.1325C22.1328 3.54689 23.6307 4.28834 24.9309 5.31016C24.6395 5.4027 24.385 5.58528 24.2039 5.83163C24.0228 6.07798 23.9244 6.37542 23.923 6.68117V7.56875L20.2546 11.2372C19.6157 10.7359 18.8522 10.4183 18.0463 10.3184V7.57805H18.0469ZM20.4991 14.7749C20.4992 15.2052 20.4068 15.6305 20.2281 16.0219C20.0494 16.4133 19.7885 16.7617 19.4633 17.0434L18.708 15.6505C18.8934 15.3959 18.9933 15.0892 18.9935 14.7744C18.9935 14.3751 18.8349 13.9921 18.5526 13.7098C18.2702 13.4274 17.8873 13.2688 17.488 13.2688C17.0887 13.2688 16.7057 13.4274 16.4234 13.7098C16.141 13.9921 15.9824 14.3751 15.9824 14.7744C15.9824 15.1167 16.1016 15.429 16.2936 15.6816L15.5416 17.0696C15.2077 16.7876 14.9394 16.4361 14.7554 16.0397C14.5714 15.6433 14.4761 15.2114 14.4763 14.7744C14.4764 13.9757 14.7937 13.2098 15.3585 12.6451C15.9233 12.0804 16.6893 11.7632 17.488 11.7633C18.2866 11.7634 19.0526 12.0807 19.6172 12.6455C20.1819 13.2103 20.4991 13.9763 20.4991 14.7749ZM18.4073 17.6416C17.8228 17.8299 17.1947 17.8345 16.6075 17.6548L17.3567 16.2668C17.401 16.2706 17.4431 16.2799 17.488 16.2799C17.547 16.2799 17.6039 16.269 17.6613 16.2624L18.4073 17.6416ZM15.3202 2.96625C15.3202 2.95805 15.3245 2.95203 15.3251 2.94437C15.8627 2.84207 16.4066 2.77647 16.9531 2.74805V4.54891H15.3202V2.96625ZM14.4676 3.1325V6.1332C14.4683 6.5168 14.6212 6.88443 14.8927 7.15542C15.1642 7.4264 15.5321 7.57859 15.9157 7.57859H16.9531V10.3152C16.1444 10.4116 15.3774 10.7272 14.735 11.2279L11.217 7.70984V6.82227C11.2157 6.47361 11.0885 6.13717 10.8586 5.87503C10.6287 5.61288 10.3118 5.44275 9.96625 5.39602C11.2891 4.33065 12.8235 3.55905 14.4676 3.1325ZM9.76883 6.22727C10.098 6.22727 10.366 6.49414 10.366 6.82227V6.85781L9.73547 6.22727H9.76883ZM8.61547 6.65383L10.366 8.40492H7.29313C7.67961 7.78214 8.12223 7.196 8.61547 6.65383ZM6.00469 6.82227C6.00469 6.49414 6.27266 6.22727 6.60187 6.22727H6.82555C6.5328 6.59358 6.25883 6.97451 6.00469 7.36859V6.82227ZM5.98664 11.293C6.17422 11.381 6.38094 11.4341 6.60187 11.4341H9.76883C10.1525 11.4342 10.5205 11.2821 10.792 11.011C11.0635 10.74 11.2164 10.3723 11.217 9.98867V9.25586L13.959 11.9979C13.4526 12.6394 13.1321 13.4076 13.0326 14.2188H5.48242C5.52781 13.2048 5.70609 12.2259 5.98664 11.293ZM6.30711 17.7138H5.84336C5.66302 17 5.54879 16.271 5.50211 15.5362H5.70992C5.7882 15.536 5.86574 15.5513 5.93812 15.5811C6.0105 15.611 6.07629 15.6547 6.13174 15.71C6.1872 15.7652 6.23123 15.8309 6.26132 15.9031C6.29141 15.9754 6.30697 16.0529 6.30711 16.1312V17.7138ZM6.79383 20.2464C7.01805 19.9916 7.15859 19.6623 7.15859 19.2976V16.1306C7.15859 15.8266 7.06344 15.5455 6.90266 15.3125H13.0298C13.1269 16.1257 13.4459 16.8965 13.9519 17.5405L8.61547 22.8774C7.8936 22.0856 7.28095 21.2007 6.79383 20.2464ZM10.2238 26.8827L10.0712 27.1644L5.86305 27.1633V25.5801C5.86305 25.252 6.13102 24.9851 6.46023 24.9851H8.42297C8.98527 25.4848 9.58778 25.9373 10.2244 26.338V26.8827H10.2238ZM11.2328 25.0212C11.095 24.9364 10.955 24.8538 10.821 24.7641C10.6341 24.4953 10.3614 24.2979 10.0477 24.2041C9.82166 24.0274 9.60186 23.8428 9.38875 23.6507L14.7257 18.3137C14.7591 18.34 14.7963 18.3597 14.8302 18.3848L11.2328 25.0212ZM12.3118 25.6118L15.8988 18.9673C16.2381 19.0989 16.5924 19.1884 16.9537 19.2336V26.7832C15.343 26.711 13.7638 26.3125 12.3118 25.6118ZM19.6809 30.8771H15.3196V29.2934C15.3196 28.9652 15.5865 28.6984 15.9157 28.6984H19.0837C19.413 28.6984 19.6809 28.9652 19.6809 29.2934V30.8771ZM18.0469 26.7832V19.2298C18.4132 19.1823 18.7722 19.0893 19.1155 18.953L22.7063 25.6041C21.249 26.3087 19.6638 26.7098 18.0469 26.7832ZM23.8678 24.9687C23.841 24.9851 23.8126 24.9998 23.7863 25.0163L20.1791 18.3624C20.207 18.3416 20.2377 18.3252 20.265 18.3039L25.6118 23.6507C25.4805 23.771 25.3395 23.8798 25.2027 23.9936C24.9072 23.9999 24.6206 24.0968 24.3819 24.2712C24.1432 24.4455 23.9637 24.689 23.8678 24.9687ZM28.3992 24.8423C28.7284 24.8423 28.9964 25.1092 28.9964 25.4384V27.0216H24.873L24.634 26.5809V26.4299C25.3847 25.9696 26.0894 25.4381 26.7384 24.8429H28.3992V24.8423ZM26.3851 22.8774L21.0355 17.5279C21.5358 16.8864 21.8512 16.1203 21.9477 15.3125H28.0973C27.9366 15.5455 27.8414 15.8266 27.8414 16.1306V19.2976C27.8414 19.6623 27.982 19.9927 28.2062 20.2464C27.7189 21.2005 27.1064 22.0853 26.3851 22.8774ZM29.1561 17.7138H28.6934V16.1306C28.6934 15.8014 28.9603 15.5356 29.2895 15.5356H29.4973C29.4512 16.2707 29.337 16.9999 29.1561 17.7138ZM21.945 14.2188C21.8456 13.4131 21.5283 12.6498 21.0273 12.011L23.9236 9.11531V9.84703C23.9243 10.2309 24.0773 10.5988 24.349 10.87C24.6207 11.1412 24.9889 11.2935 25.3728 11.2935H28.5409C28.6989 11.2935 28.8488 11.2613 28.9909 11.2142C29.2863 12.1707 29.4705 13.177 29.517 14.2188H21.945ZM33.0548 17.7138H30.8498C31.0079 16.9972 31.1079 16.2689 31.1489 15.5362H32.4581C32.5364 15.536 32.6139 15.5513 32.6863 15.5811C32.7587 15.611 32.8245 15.6547 32.8799 15.71C32.9354 15.7652 32.9794 15.8309 33.0095 15.9031C33.0396 15.9754 33.0552 16.0529 33.0553 16.1312V17.7138H33.0548Z" fill="#6198E3"/>
</svg>
